<svg xmlns="http://www.w3.org/2000/svg" xmlns:xlink="http://www.w3.org/1999/xlink" width="45" zoomAndPan="magnify" viewBox="0 0 33.75 30.000001" height="40" preserveAspectRatio="xMidYMid meet" version="1.0"><defs><clipPath id="8020d281ee"><path d="M 3.480469 1.242188 L 30.027344 1.242188 L 30.027344 27.789062 L 3.480469 27.789062 Z M 3.480469 1.242188 " clip-rule="nonzero"/></clipPath><clipPath id="f30daa822c"><path d="M 16.753906 1.242188 L 19.332031 4.902344 L 23.390625 3.019531 L 23.792969 7.476562 L 28.25 7.878906 L 26.371094 11.941406 L 30.027344 14.515625 L 26.371094 17.09375 L 28.25 21.152344 L 23.792969 21.554688 L 23.390625 26.011719 L 19.332031 24.132812 L 16.753906 27.789062 L 14.175781 24.132812 L 10.117188 26.011719 L 9.714844 21.554688 L 5.257812 21.152344 L 7.136719 17.09375 L 3.480469 14.515625 L 7.136719 11.941406 L 5.257812 7.878906 L 9.714844 7.476562 L 10.117188 3.019531 L 14.175781 4.902344 Z M 16.753906 1.242188 " clip-rule="nonzero"/></clipPath><clipPath id="1f9ac00d6b"><path d="M 0.480469 0.242188 L 27.027344 0.242188 L 27.027344 26.789062 L 0.480469 26.789062 Z M 0.480469 0.242188 " clip-rule="nonzero"/></clipPath><clipPath id="6608e97851"><path d="M 13.753906 0.242188 L 16.332031 3.902344 L 20.390625 2.019531 L 20.792969 6.476562 L 25.25 6.878906 L 23.371094 10.941406 L 27.027344 13.515625 L 23.371094 16.09375 L 25.25 20.152344 L 20.792969 20.554688 L 20.390625 25.011719 L 16.332031 23.132812 L 13.753906 26.789062 L 11.175781 23.132812 L 7.117188 25.011719 L 6.714844 20.554688 L 2.257812 20.152344 L 4.136719 16.09375 L 0.480469 13.515625 L 4.136719 10.941406 L 2.257812 6.878906 L 6.714844 6.476562 L 7.117188 2.019531 L 11.175781 3.902344 Z M 13.753906 0.242188 " clip-rule="nonzero"/></clipPath><clipPath id="967c1f3420"><rect x="0" width="28" y="0" height="27"/></clipPath><clipPath id="b6f81e5475"><path d="M 3.480469 1.242188 L 30.019531 1.242188 L 30.019531 27.78125 L 3.480469 27.78125 Z M 3.480469 1.242188 " clip-rule="nonzero"/></clipPath><clipPath id="9a784b0acd"><path d="M 16.75 1.242188 L 19.324219 4.898438 L 23.382812 3.019531 L 23.785156 7.476562 L 28.242188 7.878906 L 26.363281 11.9375 L 30.019531 14.511719 L 26.363281 17.085938 L 28.242188 21.144531 L 23.785156 21.546875 L 23.382812 26.003906 L 19.324219 24.125 L 16.75 27.78125 L 14.175781 24.125 L 10.113281 26.003906 L 9.710938 21.546875 L 5.257812 21.144531 L 7.136719 17.085938 L 3.480469 14.511719 L 7.136719 11.9375 L 5.257812 7.878906 L 9.710938 7.476562 L 10.113281 3.019531 L 14.175781 4.898438 Z M 16.75 1.242188 " clip-rule="nonzero"/></clipPath></defs><g clip-path="url(#8020d281ee)"><g clip-path="url(#f30daa822c)"><g transform="matrix(1, 0, 0, 1, 3, 1)"><g clip-path="url(#967c1f3420)"><g clip-path="url(#1f9ac00d6b)"><g clip-path="url(#6608e97851)"><path fill="#ffff00" d="M 0.480469 0.242188 L 27.027344 0.242188 L 27.027344 26.789062 L 0.480469 26.789062 Z M 0.480469 0.242188 " fill-opacity="1" fill-rule="nonzero"/></g></g></g></g></g></g><g clip-path="url(#b6f81e5475)"><g clip-path="url(#9a784b0acd)"><path stroke-linecap="butt" transform="matrix(0.725806, 0, 0, 0.725806, 3.480846, 1.242945)" fill="none" stroke-linejoin="miter" d="M 18.281946 -0.00104416 L 21.828647 5.036456 L 27.420487 2.447741 L 27.974828 8.588539 L 34.115626 9.14288 L 31.526911 14.73472 L 36.564411 18.281421 L 31.526911 21.828123 L 34.115626 27.419963 L 27.974828 27.974303 L 27.420487 34.115102 L 21.828647 31.526387 L 18.281946 36.563887 L 14.735244 31.526387 L 9.138022 34.115102 L 8.583682 27.974303 L 2.448265 27.419963 L 5.03698 21.828123 L -0.000519723 18.281421 L 5.03698 14.73472 L 2.448265 9.14288 L 8.583682 8.588539 L 9.138022 2.447741 L 14.735244 5.036456 Z M 18.281946 -0.00104416 " stroke="#000000" stroke-width="4" stroke-opacity="1" stroke-miterlimit="4"/></g></g></svg>